<?xml version="1.0" encoding="utf-8"?>
<!-- Generator: Adobe Illustrator 19.0.0, SVG Export Plug-In . SVG Version: 6.00 Build 0)  -->
<svg version="1.1" id="Layer_1" xmlns="http://www.w3.org/2000/svg" xmlns:xlink="http://www.w3.org/1999/xlink" x="0px" y="0px"
	 viewBox="0 0 517.1 352" style="enable-background:new 0 0 517.1 352;" xml:space="preserve">
<style type="text/css">
	.st0{fill:#F2F2F2;}
	.st1{fill:#B89552;}
	.st2{fill-rule:evenodd;clip-rule:evenodd;fill:#B89552;}
	.st3{fill-rule:evenodd;clip-rule:evenodd;fill:#EC1C24;}
	.st4{fill-rule:evenodd;clip-rule:evenodd;fill:#00A551;}
	.st5{fill:#C01933;}
	.st6{fill:#0061AA;}
	.st7{fill:#008F55;}
	.st8{fill:url(#XMLID_249_);enable-background:new    ;}
	.st9{fill:url(#XMLID_250_);}
	.st10{fill:url(#XMLID_252_);}
	.st11{fill:#231F20;}
</style>
<circle id="XMLID_197_" class="st0" cx="398" cy="119" r="119"/>
<g id="XMLID_93_">
	<path id="XMLID_98_" class="st1" d="M328.3,64.8c-0.4-0.1-0.7-0.1-1.1-0.2c-0.4-0.1-0.8-0.2-1.2-0.3c0.2,0.4,0.4,0.7,0.6,1.1
		c0.2,0.4,0.4,0.7,0.5,1.1l4.6,9.8c0.1,0.2,0.1,0.3,0.1,0.4c0,0.1,0,0.3,0,0.4c0,0.1-0.1,0.2-0.2,0.3c-0.1,0.1-0.2,0.2-0.3,0.4
		l-2.1,2.7l-15-11.8l2.4-3.1l8.6,6.8c0.4,0.3,0.9,0.7,1.3,1.1l-4.6-10c-0.1-0.3-0.2-0.6-0.2-0.9c0-0.3,0.2-0.6,0.4-0.9l0.4-0.5
		c0.2-0.3,0.5-0.5,0.7-0.6c0.3-0.1,0.6-0.1,0.9-0.1l10.9,2.1c-0.3-0.2-0.5-0.3-0.8-0.5c-0.2-0.2-0.5-0.3-0.7-0.5l-8.6-6.8l2.4-3.1
		l15,11.8l-2.1,2.7c-0.1,0.2-0.2,0.3-0.3,0.4c-0.1,0.1-0.2,0.2-0.3,0.3c-0.1,0.1-0.2,0.1-0.4,0.1c-0.1,0-0.3,0-0.5,0L328.3,64.8
		L328.3,64.8z M304.3,90.4l1.4-3.1c0.2-0.3,0.4-0.6,0.6-0.7c0.3-0.2,0.5-0.2,0.8-0.2l3.5,0.4l3-6.6l-2.5-2.4
		c-0.2-0.2-0.3-0.4-0.4-0.7c-0.1-0.3,0-0.6,0.1-1l1.4-3.1l14.2,14.7l-1.9,4.1L304.3,90.4L304.3,90.4z M316,82.4l-2.2,4.7l5.4,0.6
		c0.3,0,0.7,0.1,1.2,0.1c0.5,0,1,0.1,1.5,0.2c-0.4-0.3-0.8-0.7-1.1-1c-0.3-0.3-0.6-0.6-0.9-0.9L316,82.4L316,82.4z M305.4,103.7
		c-0.1,0.6-0.1,1.1-0.1,1.6c0,0.5,0.1,0.9,0.2,1.4l2.9,0.5l0.3-1.9c0-0.3,0.2-0.5,0.3-0.6c0.2-0.1,0.4-0.2,0.6-0.1l2.4,0.4l-1.1,6.7
		l-8-1.3c-0.3-0.5-0.5-1.1-0.6-1.7c-0.2-0.6-0.3-1.2-0.3-1.8c-0.1-0.6-0.1-1.3,0-1.9c0-0.7,0.1-1.4,0.2-2.2c0.2-1.4,0.7-2.6,1.4-3.7
		c0.7-1.1,1.5-2,2.5-2.7c1-0.7,2.1-1.2,3.4-1.5c1.3-0.3,2.6-0.3,4-0.1c1.4,0.2,2.6,0.7,3.8,1.3c1.1,0.7,2,1.5,2.7,2.5
		c0.7,1,1.2,2.2,1.5,3.5c0.3,1.3,0.3,2.7,0,4.2c-0.1,0.8-0.3,1.5-0.6,2.2c-0.2,0.7-0.5,1.3-0.9,1.8c-0.3,0.5-0.7,1-1.1,1.5
		c-0.4,0.4-0.8,0.8-1.2,1.1l-1.7-1.6c-0.2-0.2-0.3-0.3-0.4-0.5c-0.1-0.2-0.1-0.4-0.1-0.6c0-0.3,0.2-0.5,0.4-0.8
		c0.3-0.3,0.5-0.6,0.7-0.9c0.2-0.3,0.4-0.6,0.5-0.9c0.1-0.3,0.3-0.6,0.4-1c0.1-0.3,0.2-0.7,0.3-1.2c0.1-0.8,0.1-1.6-0.1-2.3
		c-0.2-0.7-0.5-1.3-0.9-1.9c-0.4-0.5-1-1-1.7-1.4c-0.7-0.4-1.5-0.6-2.4-0.8c-1-0.2-1.9-0.2-2.7,0c-0.8,0.1-1.5,0.4-2.2,0.8
		c-0.6,0.4-1.1,0.9-1.5,1.5C305.8,102.2,305.5,102.9,305.4,103.7L305.4,103.7z M308.1,125.1l-7.1,0.1l-0.1-4.4l7.1-0.1l11.8-7.1
		l0.1,3.9c0,0.4-0.1,0.7-0.3,0.9c-0.2,0.2-0.4,0.4-0.7,0.6l-5.6,2.8c-0.4,0.2-0.9,0.4-1.2,0.6c-0.4,0.2-0.8,0.4-1.1,0.5
		c0.4,0.1,0.8,0.3,1.1,0.5c0.4,0.2,0.8,0.4,1.2,0.6l5.7,2.6c0.1,0.1,0.2,0.1,0.3,0.2c0.1,0.1,0.2,0.2,0.3,0.3
		c0.1,0.1,0.2,0.3,0.2,0.4c0.1,0.2,0.1,0.3,0.1,0.5l0.1,3.9L308.1,125.1L308.1,125.1z M305.5,151.2l-0.8-3.3c-0.1-0.4-0.1-0.7,0.1-1
		c0.1-0.3,0.3-0.5,0.6-0.7l3-1.8l-1.6-7.1l-3.5-0.4c-0.3,0-0.5-0.1-0.8-0.4c-0.2-0.2-0.4-0.5-0.5-0.8l-0.8-3.4l20.2,3l1,4.4
		L305.5,151.2L305.5,151.2z M309.9,137.6l1.2,5.1l4.6-2.8c0.3-0.2,0.6-0.4,1-0.6c0.4-0.2,0.8-0.5,1.3-0.8c-0.5,0-1-0.1-1.5-0.1
		c-0.5,0-0.9-0.1-1.2-0.2L309.9,137.6L309.9,137.6z M315.5,156.1l-6.2,3.3l-2.1-3.9l16.9-8.9l2.9,5.5c0.6,1.2,1.1,2.3,1.3,3.3
		c0.2,1,0.2,1.9,0.1,2.7c-0.2,0.8-0.5,1.5-1,2c-0.5,0.6-1.1,1-1.8,1.4c-0.5,0.3-1.1,0.5-1.7,0.6c-0.6,0.1-1.1,0.1-1.7,0.1
		c-0.6-0.1-1.1-0.2-1.7-0.5c-0.5-0.2-1.1-0.6-1.6-1c0,0.3,0,0.7-0.1,1c-0.1,0.3-0.2,0.6-0.4,1l-4,6.7l-1.9-3.5
		c-0.3-0.7-0.3-1.3,0-1.8l3.4-5.4c0.2-0.2,0.2-0.5,0.2-0.7c0-0.2-0.1-0.5-0.2-0.8L315.5,156.1L315.5,156.1z M318.2,154.7l0.8,1.6
		c0.3,0.5,0.6,1,0.9,1.3c0.3,0.3,0.7,0.5,1,0.6c0.4,0.1,0.7,0.1,1.1,0.1c0.4-0.1,0.7-0.2,1.1-0.4c0.7-0.4,1.2-0.9,1.4-1.6
		c0.2-0.7,0-1.6-0.6-2.6l-0.8-1.6L318.2,154.7L318.2,154.7z M332,181.8l-4.6,4.4l-3-3.2l13.9-13.1l4.6,4.9c0.9,1,1.6,1.9,2,2.8
		c0.4,0.9,0.7,1.8,0.7,2.6c0,0.8-0.1,1.6-0.5,2.4c-0.3,0.7-0.8,1.4-1.5,2c-0.7,0.7-1.4,1.1-2.2,1.5c-0.8,0.3-1.6,0.5-2.4,0.4
		c-0.8-0.1-1.7-0.3-2.6-0.8c-0.9-0.5-1.8-1.2-2.7-2.2L332,181.8L332,181.8z M334.4,179.5l1.6,1.7c0.8,0.8,1.6,1.3,2.3,1.2
		c0.7,0,1.5-0.4,2.2-1c0.3-0.3,0.6-0.6,0.7-1c0.2-0.3,0.3-0.7,0.3-1.1c0-0.4-0.1-0.7-0.3-1.1c-0.2-0.4-0.5-0.8-0.8-1.2l-1.6-1.7
		L334.4,179.5L334.4,179.5z M351.4,205.7l-2.8-2c-0.3-0.2-0.5-0.5-0.6-0.8c-0.1-0.3-0.1-0.6,0-0.9l1-3.4l-5.9-4.1l-2.8,2.1
		c-0.2,0.2-0.5,0.2-0.8,0.2c-0.3,0-0.6-0.1-0.9-0.3l-2.8-2l17-11.4l3.7,2.6L351.4,205.7L351.4,205.7z M345.6,192.7l4.3,3l1.5-5.2
		c0.1-0.3,0.2-0.7,0.3-1.2c0.1-0.4,0.3-0.9,0.4-1.4c-0.4,0.3-0.8,0.7-1.2,0.9c-0.4,0.3-0.7,0.5-1,0.7L345.6,192.7L345.6,192.7z
		 M362.4,202.7l-2.7,6.5l-4.1-1.7l7.2-17.7l5.7,2.3c1.3,0.5,2.3,1.1,3.1,1.7c0.8,0.6,1.4,1.3,1.8,2c0.4,0.7,0.6,1.4,0.6,2.2
		c0,0.7-0.2,1.5-0.5,2.2c-0.2,0.6-0.5,1.1-0.9,1.5c-0.4,0.4-0.8,0.8-1.3,1.1c-0.5,0.3-1,0.5-1.6,0.7c-0.6,0.2-1.2,0.2-1.9,0.2
		c0.2,0.2,0.4,0.5,0.6,0.8c0.2,0.3,0.3,0.6,0.3,1l1.2,7.7l-3.7-1.5c-0.7-0.3-1.1-0.7-1.2-1.4l-0.8-6.3c0-0.3-0.1-0.5-0.3-0.7
		c-0.1-0.2-0.4-0.3-0.7-0.4L362.4,202.7L362.4,202.7z M363.6,199.9l1.6,0.7c0.6,0.2,1.1,0.3,1.5,0.4c0.4,0,0.8,0,1.2-0.2
		c0.4-0.1,0.7-0.4,0.9-0.7c0.2-0.3,0.5-0.6,0.6-1c0.3-0.8,0.3-1.5,0-2.1c-0.3-0.6-1-1.2-2.1-1.6l-1.6-0.7L363.6,199.9L363.6,199.9z
		 M392.3,217.5l-3.4-0.6c-0.4-0.1-0.7-0.2-0.9-0.4c-0.2-0.2-0.4-0.5-0.4-0.8l-0.6-3.5l-7.1-1.2l-1.7,3.1c-0.1,0.2-0.3,0.4-0.6,0.6
		c-0.3,0.2-0.6,0.2-1,0.1l-3.4-0.6l10.4-17.6l4.5,0.7L392.3,217.5L392.3,217.5z M381.5,208.3l5.1,0.9l-0.9-5.4
		c-0.1-0.3-0.1-0.7-0.2-1.2c-0.1-0.5-0.2-1-0.2-1.5c-0.2,0.5-0.4,0.9-0.7,1.4c-0.2,0.4-0.4,0.8-0.6,1.1L381.5,208.3L381.5,208.3z
		 M401.3,213.6l7.1-0.1l0,3.5l-11.5,0.2l-0.3-19.1l4.4-0.1L401.3,213.6L401.3,213.6z M417.9,215.6l-4.4,0.7l-3.1-18.8l4.4-0.7
		L417.9,215.6L417.9,215.6z M430.8,202.5c0.3,0.2,0.6,0.5,0.8,0.8c0.3,0.3,0.6,0.6,0.8,0.9c0-0.4,0-0.8,0-1.2c0-0.4,0.1-0.8,0.1-1.2
		l1.1-10.8c0-0.2,0.1-0.3,0.1-0.5c0.1-0.1,0.1-0.2,0.2-0.3c0.1-0.1,0.2-0.1,0.3-0.2c0.1-0.1,0.3-0.1,0.5-0.2l3.2-1.2l6.8,17.8
		l-3.6,1.4l-3.9-10.3c-0.2-0.5-0.4-1-0.5-1.6l-1.2,11c0,0.3-0.2,0.6-0.3,0.9c-0.2,0.2-0.4,0.4-0.8,0.5l-0.6,0.2
		c-0.3,0.1-0.6,0.2-0.9,0.1c-0.3-0.1-0.6-0.2-0.8-0.4l-8.2-7.4c0.1,0.3,0.3,0.5,0.4,0.8c0.1,0.3,0.2,0.5,0.3,0.8l3.9,10.3l-3.6,1.4
		l-6.8-17.8l3.2-1.2c0.2-0.1,0.3-0.1,0.5-0.2c0.1-0.1,0.3-0.1,0.4-0.1c0.1,0,0.2,0,0.4,0.1c0.1,0.1,0.2,0.1,0.4,0.3L430.8,202.5
		L430.8,202.5z M449.9,195.1l3.6,5.2l-3.6,2.5L439,187.2l5.5-3.8c1.1-0.8,2.1-1.3,3.1-1.6c1-0.3,1.9-0.4,2.7-0.3
		c0.8,0.1,1.6,0.4,2.3,0.8c0.7,0.5,1.3,1,1.8,1.8c0.5,0.8,0.9,1.6,1.1,2.4c0.2,0.8,0.2,1.7,0,2.5c-0.2,0.8-0.6,1.6-1.2,2.5
		c-0.6,0.8-1.5,1.6-2.5,2.3L449.9,195.1L449.9,195.1z M448,192.3l1.9-1.3c0.9-0.7,1.5-1.4,1.6-2.1c0.1-0.7-0.1-1.5-0.7-2.3
		c-0.2-0.4-0.5-0.6-0.8-0.9c-0.3-0.2-0.6-0.4-1-0.4c-0.4-0.1-0.8,0-1.2,0.1c-0.4,0.1-0.9,0.3-1.3,0.7l-1.9,1.3L448,192.3L448,192.3z
		 M469,187.5l-3.2,3.1l-13.1-13.9l3.2-3.1L469,187.5L469,187.5z M483.8,168.3l-2,2.8c-0.2,0.3-0.5,0.5-0.8,0.6
		c-0.3,0.1-0.6,0.1-0.9,0l-3.4-1l-4.1,5.9l2.1,2.8c0.2,0.2,0.2,0.5,0.2,0.8c0,0.3-0.1,0.6-0.3,0.9l-2,2.8l-11.4-17l2.6-3.7
		L483.8,168.3L483.8,168.3z M470.8,174.1l3-4.3l-5.2-1.5c-0.3-0.1-0.7-0.2-1.2-0.3c-0.4-0.1-0.9-0.3-1.4-0.4
		c0.3,0.4,0.7,0.8,0.9,1.2c0.3,0.4,0.5,0.7,0.7,1L470.8,174.1L470.8,174.1z M487.8,159.7l-1.8,4.1l-17.4-7.9l1.8-4.1L487.8,159.7
		L487.8,159.7z M490.9,130.7c0-0.1,0.1-0.2,0.1-0.3c0.1-0.1,0.1-0.2,0.3-0.3l2.1-1.4c0.9,0.9,1.4,2,1.7,3.2c0.3,1.2,0.3,2.6,0.1,4.2
		c-0.2,1.4-0.7,2.7-1.4,3.7c-0.7,1.1-1.5,1.9-2.5,2.5c-1,0.6-2.1,1.1-3.3,1.3c-1.2,0.2-2.6,0.2-3.9,0c-1.4-0.2-2.6-0.7-3.7-1.4
		c-1.1-0.7-2-1.5-2.7-2.5c-0.7-1-1.2-2.1-1.5-3.4c-0.3-1.3-0.3-2.7,0-4.1c0.1-0.7,0.3-1.4,0.5-2c0.2-0.6,0.5-1.2,0.8-1.7
		c0.3-0.5,0.7-1,1-1.4c0.4-0.4,0.8-0.8,1.2-1l1.7,1.8c0.1,0.1,0.2,0.2,0.3,0.4c0.1,0.1,0.1,0.3,0.1,0.6c0,0.2-0.1,0.3-0.2,0.4
		c-0.1,0.1-0.2,0.3-0.3,0.4c-0.1,0.1-0.3,0.3-0.4,0.5c-0.1,0.2-0.3,0.4-0.4,0.6c-0.1,0.2-0.3,0.5-0.4,0.8c-0.1,0.3-0.2,0.7-0.3,1.2
		c-0.1,0.8-0.1,1.5,0.1,2.2c0.2,0.7,0.5,1.3,0.9,1.9c0.4,0.6,1,1,1.7,1.4c0.7,0.4,1.5,0.7,2.4,0.8c1,0.2,1.8,0.2,2.6,0
		c0.8-0.1,1.5-0.4,2.1-0.8c0.6-0.4,1.1-0.8,1.4-1.4c0.4-0.6,0.6-1.2,0.7-1.9c0.1-0.4,0.1-0.8,0.1-1.1c0-0.3,0-0.6,0-0.9
		c0-0.3-0.1-0.6-0.2-0.9c-0.1-0.3-0.3-0.6-0.4-0.9c-0.1-0.1-0.1-0.2-0.2-0.4C490.9,131,490.9,130.8,490.9,130.7L490.9,130.7z
		 M481.2,113.7c0.2,0.1,0.4,0.3,0.5,0.4c0.1,0.1,0.2,0.3,0.2,0.6c0,0.2-0.1,0.4-0.2,0.6c-0.1,0.2-0.3,0.5-0.4,0.8
		c-0.2,0.3-0.3,0.6-0.4,1c-0.1,0.4-0.2,0.8-0.2,1.3c0,0.8,0.2,1.4,0.6,1.8c0.4,0.4,0.8,0.6,1.4,0.6c0.4,0,0.7-0.1,1-0.4
		c0.2-0.2,0.5-0.6,0.6-1c0.2-0.4,0.3-0.9,0.5-1.4c0.1-0.5,0.3-1,0.5-1.6c0.2-0.5,0.4-1.1,0.6-1.6c0.2-0.5,0.6-1,0.9-1.4
		c0.4-0.4,0.9-0.7,1.4-1c0.6-0.3,1.2-0.4,2-0.4c0.9,0,1.7,0.1,2.5,0.4c0.8,0.3,1.4,0.7,2,1.3c0.6,0.6,1,1.3,1.4,2.1
		c0.3,0.8,0.5,1.8,0.5,2.9c0,0.6,0,1.2-0.2,1.8c-0.1,0.6-0.3,1.2-0.5,1.8c-0.2,0.6-0.5,1.1-0.8,1.6c-0.3,0.5-0.6,1-1,1.3l-2.1-1.3
		c-0.2-0.1-0.3-0.2-0.4-0.4c-0.1-0.2-0.1-0.4-0.2-0.6c0-0.3,0.1-0.5,0.2-0.8c0.2-0.3,0.3-0.6,0.5-0.9c0.2-0.3,0.4-0.7,0.5-1.2
		c0.2-0.4,0.2-1,0.2-1.5c0-0.8-0.2-1.4-0.6-1.9c-0.4-0.4-0.9-0.7-1.7-0.6c-0.4,0-0.8,0.1-1.1,0.4c-0.3,0.2-0.5,0.6-0.7,1
		c-0.2,0.4-0.3,0.9-0.5,1.4c-0.1,0.5-0.3,1-0.4,1.6c-0.2,0.5-0.4,1.1-0.6,1.6c-0.2,0.5-0.6,1-1,1.4c-0.4,0.4-0.9,0.7-1.5,1
		c-0.6,0.3-1.4,0.4-2.2,0.4c-0.7,0-1.4-0.1-2.1-0.4c-0.7-0.3-1.3-0.7-1.8-1.2c-0.5-0.6-1-1.2-1.3-2c-0.3-0.8-0.5-1.7-0.5-2.8
		c0-0.6,0-1.2,0.1-1.7c0.1-0.6,0.2-1.1,0.4-1.6c0.2-0.5,0.4-1,0.6-1.4c0.2-0.4,0.5-0.8,0.8-1.2L481.2,113.7L481.2,113.7z
		 M492.2,89.6l0.8,3.3c0.1,0.4,0.1,0.7-0.1,1c-0.1,0.3-0.3,0.5-0.6,0.7l-3,1.8l1.6,7.1l3.5,0.4c0.3,0,0.5,0.1,0.8,0.4
		c0.2,0.2,0.4,0.5,0.5,0.8l0.8,3.4l-20.2-3l-1-4.4L492.2,89.6L492.2,89.6z M487.8,103.1l-1.2-5.1l-4.6,2.8c-0.3,0.2-0.6,0.4-1,0.6
		c-0.4,0.2-0.8,0.5-1.3,0.8c0.5,0,1,0.1,1.5,0.1c0.5,0,0.9,0.1,1.2,0.2L487.8,103.1L487.8,103.1z M483,84l5.8-2.7l1.9,4l-17.3,8.1
		l-2.9-6.1c-0.6-1.2-0.9-2.3-1-3.3c-0.1-1-0.1-1.9,0.2-2.7c0.2-0.8,0.6-1.5,1.2-2.1c0.6-0.6,1.2-1.1,2-1.5c0.9-0.4,1.7-0.6,2.6-0.7
		c0.9-0.1,1.7,0.1,2.4,0.4c0.8,0.3,1.5,0.9,2.2,1.6c0.7,0.7,1.3,1.7,1.9,2.9L483,84L483,84z M480,85.4l-1-2.1
		c-0.5-1-1.1-1.7-1.8-1.9c-0.7-0.2-1.5-0.1-2.4,0.3c-0.4,0.2-0.7,0.4-1,0.7c-0.3,0.3-0.5,0.6-0.6,0.9c-0.1,0.3-0.2,0.7-0.1,1.2
		c0,0.4,0.2,0.9,0.4,1.4l1,2.1L480,85.4L480,85.4z M472.8,55l2,2.8c0.2,0.3,0.3,0.6,0.3,0.9c0,0.3-0.1,0.6-0.3,0.8l-2.1,2.8l4.2,5.9
		l3.4-1c0.2-0.1,0.5-0.1,0.8,0c0.3,0.1,0.6,0.3,0.8,0.6l2,2.8l-19.8,5l-2.6-3.7L472.8,55L472.8,55z M474,69.2l-3-4.3l-3.2,4.4
		c-0.2,0.3-0.4,0.6-0.7,1c-0.3,0.4-0.6,0.8-0.9,1.2c0.5-0.2,1-0.3,1.4-0.5c0.4-0.1,0.8-0.2,1.2-0.3L474,69.2L474,69.2z M447.8,57.7
		l2.4-2.6l3.9,3.7l10.7-11.3l3.2,3l-10.7,11.3l3.9,3.7l-2.4,2.6L447.8,57.7L447.8,57.7z"/>
	<path id="XMLID_4_" class="st2" d="M383.7,62.8c-7.2,17.2-8.5,38.2-4.7,48.7c3.9,10.8,22.3,25.9,4.8,45.3
		c4.4-11.5-12.8-24.8-19.9-36.6C353.8,103.4,371.5,75.9,383.7,62.8L383.7,62.8z"/>
	<path id="XMLID_3_" class="st3" d="M415.6,27.4c-3,16.1-20.2,31.5-11.3,47c7.7,13.4,16.2,12.5,12.9,32.7
		c-1.2-14.7-25.4-12.3-30.9-26.4C377.4,57.8,407,40.3,415.6,27.4L415.6,27.4z"/>
	<path id="XMLID_2_" class="st4" d="M421.9,86.9c-0.9,13.6,5.7,28.6-6.7,41.4c-10.9,11.2-31.8,14.1-19.8,55.4
		c0.7-22.2,25.2-33.2,33.2-46.1C440.2,118.6,426.3,102.5,421.9,86.9L421.9,86.9z"/>
	<path id="XMLID_1_" class="st2" d="M411.9,104.7c-1.9-7.5-23-13.5-26.8-8.5c-5,6.5,1.4,20.6,5,27.9c8.5,17.4,24.6,1.4,26.7-4.3
		c-11.1,7.5-18.1,3.5-19.7-0.8c-3.4-9.2,9.6-9.3,13.4-5.6c-5.8-11.4-16.4-0.6-16-8.9C394.7,98.1,402.3,99.5,411.9,104.7L411.9,104.7
		z"/>
</g>
<g id="XMLID_198_">
	<g id="XMLID_271_">
		<path id="XMLID_274_" class="st5" d="M235.4,284c-8.5,1.5-33.7,0.6-33.7-22.7c0-29.5,47.2-54.6,67.5-52.1
			c-44.1,16.4-52.8,39.1-52.8,54.2C216.4,283.3,232.1,281.8,235.4,284z"/>
		<path id="XMLID_273_" class="st6" d="M288.7,300.1c-4.4,7.6-21.5,26.7-38.8,11.5c-21.9-19.2-9.7-72.3,5.4-86.5
			c-16.6,45-5.4,66.6,5.8,76.4C275.8,314.5,284.9,301.2,288.7,300.1z"/>
		<path id="XMLID_272_" class="st7" d="M332.4,254.6c5.9,6.4,19.3,28.4,0.4,41.4c-23.9,16.5-70.5-9.7-79.7-28.5
			c37.8,28.4,61,23.2,73.3,14.7C342.5,271.2,332.5,258.6,332.4,254.6z"/>
	</g>
	<g id="XMLID_266_">
		<linearGradient id="XMLID_249_" gradientUnits="userSpaceOnUse" x1="110.9951" y1="53.0819" x2="265.9784" y2="201.0119">
			<stop  offset="0" style="stop-color:#EE404A"/>
			<stop  offset="0.187" style="stop-color:#E83A47"/>
			<stop  offset="0.4483" style="stop-color:#D52A40"/>
			<stop  offset="0.6461" style="stop-color:#C31939"/>
			<stop  offset="0.9772" style="stop-color:#C01934"/>
			<stop  offset="1" style="stop-color:#C01933"/>
		</linearGradient>
		<path id="XMLID_270_" class="st8" d="M261.6,163.9c-8.1-26.5-30.9-46-60.9-52.2c-47.1-9.6-79.4-19.2-90-58.4c0,0,0,0.1,0,0.1
			c0,33.9,28.6,58.5,51.3,63.8c35.5,8.3,60.2,27.8,66,52.2c0.8,3.5,1.2,6.9,1.2,10.2c0,8.9-3,17.1-8.5,23.6
			c15.9-8.3,31.5-11.1,44.7-11.4C265.2,180.5,263.7,170.7,261.6,163.9z"/>
		<linearGradient id="XMLID_250_" gradientUnits="userSpaceOnUse" x1="33.356" y1="37.122" x2="182.4409" y2="190.907">
			<stop  offset="0" style="stop-color:#BBBDBF"/>
			<stop  offset="1" style="stop-color:#808184"/>
		</linearGradient>
		<path id="XMLID_268_" class="st9" d="M225.8,170.1c-5.6-23.6-29.7-42.5-64.3-50.6c-10.4-2.4-22-8.8-31.7-18.3
			C86.7,91.3,50.7,71,41.1,24.8c-1.1,57.3,48.1,88.1,90.6,98c36.5,8.5,63.6,20.7,71.9,50c5.4,19.2-20.1,31.5-29.5,8.6
			c-7.3-17.7-21.5-38.5-50.6-47.3c-15.3-4.6-32.3-15.2-54.8-31c-14.2-10-31.3-14.2-57.7-13.7c41.1,9.9,53.3,19.4,64.7,43.3
			c20.8,0.7,43.7,7.3,62.1,22.1c9,7.3,14.4,18.4,19.6,29.1c9.4,19.3,17.5,36,43.5,29.4c5.4-1.4,10.2-3.8,14.3-7.2l0.1-0.1
			C225.1,197.6,229.1,184.2,225.8,170.1z"/>
		<linearGradient id="XMLID_252_" gradientUnits="userSpaceOnUse" x1="56.531" y1="111.2783" x2="198.252" y2="246.5495">
			<stop  offset="0" style="stop-color:#C9DA2A"/>
			<stop  offset="0.1027" style="stop-color:#B5D12C"/>
			<stop  offset="0.3132" style="stop-color:#81B931"/>
			<stop  offset="0.6106" style="stop-color:#2F933A"/>
			<stop  offset="0.6404" style="stop-color:#268F3B"/>
			<stop  offset="0.7581" style="stop-color:#1E8F40"/>
			<stop  offset="0.9381" style="stop-color:#098F4F"/>
			<stop  offset="1" style="stop-color:#008F55"/>
		</linearGradient>
		<path id="XMLID_267_" class="st10" d="M155.2,184.9c-5.1-10.5-10.4-21.4-19-28.4c-26.4-21.2-64.5-25.5-89.8-18.1
			c24.3-0.3,43.4,6.8,62.7,23.2c20.2,17.2,23.5,37.2,26.4,54.8c1.8,11.3,10.3,22.5,22.7,29.7c8.7,5,15.1,6.6,24.8,7.7
			c1.9-14,10.5-26.9,23.1-39.9C174.8,225.4,164.6,204.2,155.2,184.9z"/>
	</g>
	<g id="XMLID_199_">
		<path id="XMLID_264_" class="st11" d="M64,270l6.5,8.2L77,270h2v21h-2v-16l-6.5,7.9L64,275v16h-4v-21H64z"/>
		<path id="XMLID_261_" class="st11" d="M89.7,285l-2.5,6h-3.1l8.5-21h2.2l8.9,21h-3.2l-2.6-6H89.7z M93.7,274l-2.9,7h5.9L93.7,274z
			"/>
		<path id="XMLID_259_" class="st11" d="M125,280v9.1c-4,1.2-5.2,1.7-7.7,1.7c-6.2,0-10.9-4.3-10.9-10.3c0-5.9,5-10.5,11.1-10.5
			c2.2,0,3.5,0.6,7.5,1.8v3.1c-5-1.5-5.3-2.1-7.5-2.1c-4.3,0-7.9,3.3-7.9,7.6c0,4.5,2.9,7.7,7.4,7.7c1.4,0,2-0.3,4-0.9V284h-3v-4
			H125z"/>
		<path id="XMLID_257_" class="st11" d="M145.8,270l-7.8,9.9V291h-3v-11.1l-6.9-9.9h3.5l5.4,6.9l5.3-6.9H145.8z"/>
		<path id="XMLID_254_" class="st11" d="M151.2,285l-2.5,6h-3.1l8.5-21h2.2l8.9,21h-3.2l-2.6-6H151.2z M155.2,274l-2.9,7h5.9
			L155.2,274z"/>
		<path id="XMLID_251_" class="st11" d="M174.6,270c1.9,0,3,0.4,4.2,1.1c1.6,1,2.5,2.8,2.5,4.8c0,2.3-1.2,4.1-3.3,4.9
			c1.4,1,2.5,2.6,5.6,7.9c0.4,0.7,0.9,2.3,1.5,2.3h-3.5c-0.2,0-0.4-0.9-0.5-1c-0.6-1-2-2.1-2.4-2.7c-3.2-5.1-3.7-5.7-7.7-5.6v9.3h-2
			v-21H174.6z M174.4,279c2.5,0,3.8-1.1,3.8-3c0-1.9-1.3-3-3.5-3H171v6H174.4z"/>
		<path id="XMLID_248_" class="st11" d="M6.1,301c2.3,0,3.3,0.1,4.5,0.8c1.5,1,2.4,2.6,2.4,4.6c0,3.5-2.6,5.5-6.7,5.5H3v9H0v-20H6.1
			z M6.3,310c2.3,0,3.6-1.3,3.6-3.3c0-1.1-0.5-2.4-1.3-2.9C8,303.5,7.4,303,6.3,303H3v7H6.3z"/>
		<path id="XMLID_245_" class="st11" d="M19.9,315l-2.5,6h-3.1l8.5-20H25l8.9,20h-3.2l-2.6-6H19.9z M23.9,305l-2.9,7H27L23.9,305z"
			/>
		<path id="XMLID_242_" class="st11" d="M43.3,301c1.9,0,3,0.1,4.2,0.8c1.6,1,2.5,2.7,2.5,4.7c0,2.3-1.2,4-3.3,4.8
			c1.4,1,2.5,2.4,5.6,7.7c0.4,0.7,0.9,1.1,1.5,2.1h-3.5c-0.2,0-0.4-0.7-0.5-0.8c-0.6-1-1.4-2-1.7-2.6c-3.2-5.1-4-5.6-7-5.5v8.9h-3
			v-20H43.3z M43,310c2.5,0,3.8-1.6,3.8-3.5c0-1.9-1.3-3.5-3.5-3.5H41v7H43z"/>
		<path id="XMLID_239_" class="st11" d="M61.5,315l-2.5,6h-3.1l8.5-20h2.2l8.9,20h-3.2l-2.6-6H61.5z M65.5,305l-2.9,7h5.9L65.5,305z
			"/>
		<path id="XMLID_237_" class="st11" d="M82,301v18h8v2H79v-20H82z"/>
		<path id="XMLID_235_" class="st11" d="M96,321v-20h3v20H96z"/>
		<path id="XMLID_233_" class="st11" d="M108.8,301l6.5,8.2l6.5-8.2h3.1v20h-4v-15.6l-6.5,7.9l-6.5-7.9V321h-3v-20H108.8z"/>
		<path id="XMLID_230_" class="st11" d="M136.7,301c2.3,0,3.3,0.1,4.5,0.8c1.5,1,2.4,2.6,2.4,4.6c0,3.5-2.6,5.5-6.7,5.5H133v9h-2
			v-20H136.7z M137,310c2.3,0,3.6-1.3,3.6-3.3c0-1.1-0.5-2.4-1.3-2.9c-0.6-0.3-1.2-0.8-2.3-0.8H133v7H137z"/>
		<path id="XMLID_228_" class="st11" d="M148,321v-20h3v20H148z"/>
		<path id="XMLID_225_" class="st11" d="M161.5,315l-2.5,6h-3.1l8.5-20h2.2l8.9,20h-3.2l-2.6-6H161.5z M165.5,305l-2.9,7h5.9
			L165.5,305z"/>
		<path id="XMLID_223_" class="st11" d="M180,321v-20h2v20H180z"/>
		<path id="XMLID_219_" class="st11" d="M21.3,332c3.9,0,6.3,1.6,6.3,4.8c0,1.9-1,3.2-2.8,4c2.8,0.6,4.5,2.4,4.5,5
			c0,1.8-0.9,3.7-2.4,4.7c-1.3,0.9-3,1.5-5.5,1.5H15v-20H21.3z M20.3,341c1.3,0,2.2-0.7,2.8-1.1c0.9-0.5,1.6-1.9,1.6-3
			c0-0.9-0.4-1.9-1.1-2.3c-0.6-0.4-1.3-0.6-2.6-0.6H18v7H20.3z M21.8,349c1.4,0,2.3-0.3,3-0.7c0.9-0.5,1.5-1.4,1.5-2.5
			c0-2-1.5-2.8-4.7-2.8H18v6H21.8z"/>
		<path id="XMLID_217_" class="st11" d="M35,352v-20h2v20H35z"/>
		<path id="XMLID_215_" class="st11" d="M61,332l-12.7,17H60v3H42.8l12.7-18H44v-2H61z"/>
		<path id="XMLID_212_" class="st11" d="M85.5,341.2c0,6.1-4.5,10.4-10.9,10.4c-6.1,0-10.6-4.4-10.6-10.4c0-6,4.6-10.4,10.8-10.4
			C80.9,330.8,85.5,335.2,85.5,341.2z M67,341.2c0,4.4,3.1,7.5,7.5,7.5c4.7,0,7.8-3,7.8-7.5c0-4.4-3.1-7.5-7.7-7.5
			C70.1,333.7,67,336.7,67,341.2z"/>
		<path id="XMLID_210_" class="st11" d="M105,332v2h-8v18h-2v-18h-8v-2H105z"/>
		<path id="XMLID_208_" class="st11" d="M125,332v2h-8v18h-3v-18h-6v-2H125z"/>
		<path id="XMLID_206_" class="st11" d="M138,335.7c-1-1.5-2.6-2.1-4.3-2.1s-2.8,1-2.8,2.3c0,1.2,0.9,2.1,3.6,3.6
			c4,2.3,5.2,3.8,5.2,6.6c0,3.3-2.6,5.6-6.1,5.6c-1.9,0-3.5-0.6-5.5-1.9v-3.8c3,2.2,3.7,2.9,5.5,2.9c1.9,0,3.3-1,3.3-2.6
			c0-0.9-0.3-1.5-1.2-2.3c-0.7-0.6-0.7-0.6-3-2c-3.1-1.8-4.3-3.4-4.3-5.7c0-3.1,2.2-5.4,5.6-5.4c1.6,0,3.2,0.4,4.2,1.3V335.7z"/>
		<path id="XMLID_202_" class="st11" d="M148.5,346l-2.5,6h-3.1l8.5-20h2.2l8.9,20h-3.2l-2.6-6H148.5z M152.5,336l-2.9,7h5.9
			L152.5,336z M157.5,326l-4.1,4H151l3-4H157.5z"/>
		<path id="XMLID_200_" class="st11" d="M183,342v7.9c-3,1.2-4.8,1.7-7.3,1.7c-6.2,0-10.7-4.3-10.7-10.3c0-5.9,4.2-10.5,10.3-10.5
			c2.3,0,4.7,0.6,6.7,1.8v3.1c-2-1.5-4.4-2.1-6.6-2.1c-4.3,0-7.5,3.3-7.5,7.6c0,4.5,3.2,7.7,7.8,7.7c1.4,0,2.3-0.3,4.3-0.9v-4h-5v-2
			H183z"/>
	</g>
</g>
</svg>
